<svg width="190" height="194" viewBox="0 0 190 194" fill="none" xmlns="http://www.w3.org/2000/svg">
<path d="M18.93 18.216C17.658 18.216 16.566 17.946 15.654 17.406C14.742 16.854 14.04 16.092 13.548 15.12C13.056 14.136 12.81 13.002 12.81 11.718C12.81 10.434 13.056 9.3 13.548 8.316C14.04 7.332 14.742 6.564 15.654 6.012C16.566 5.46 17.658 5.184 18.93 5.184C20.442 5.184 21.678 5.562 22.638 6.318C23.61 7.062 24.216 8.112 24.456 9.468H21.918C21.762 8.784 21.426 8.25 20.91 7.866C20.406 7.47 19.734 7.272 18.894 7.272C17.73 7.272 16.818 7.668 16.158 8.46C15.498 9.252 15.168 10.338 15.168 11.718C15.168 13.098 15.498 14.184 16.158 14.976C16.818 15.756 17.73 16.146 18.894 16.146C19.734 16.146 20.406 15.966 20.91 15.606C21.426 15.234 21.762 14.724 21.918 14.076H24.456C24.216 15.372 23.61 16.386 22.638 17.118C21.678 17.85 20.442 18.216 18.93 18.216ZM30.7255 18.216C29.8615 18.216 29.0815 18.018 28.3855 17.622C27.7015 17.226 27.1555 16.68 26.7475 15.984C26.3515 15.276 26.1535 14.46 26.1535 13.536C26.1535 12.612 26.3575 11.802 26.7655 11.106C27.1735 10.398 27.7195 9.846 28.4035 9.45C29.0995 9.054 29.8795 8.856 30.7435 8.856C31.5955 8.856 32.3635 9.054 33.0475 9.45C33.7435 9.846 34.2895 10.398 34.6855 11.106C35.0935 11.802 35.2975 12.612 35.2975 13.536C35.2975 14.46 35.0935 15.276 34.6855 15.984C34.2895 16.68 33.7435 17.226 33.0475 17.622C32.3515 18.018 31.5775 18.216 30.7255 18.216ZM30.7255 16.218C31.3255 16.218 31.8475 15.996 32.2915 15.552C32.7355 15.096 32.9575 14.424 32.9575 13.536C32.9575 12.648 32.7355 11.982 32.2915 11.538C31.8475 11.082 31.3315 10.854 30.7435 10.854C30.1315 10.854 29.6035 11.082 29.1595 11.538C28.7275 11.982 28.5115 12.648 28.5115 13.536C28.5115 14.424 28.7275 15.096 29.1595 15.552C29.6035 15.996 30.1255 16.218 30.7255 16.218ZM37.3575 18V9.072H39.3915L39.5895 10.278C39.8775 9.846 40.2555 9.504 40.7235 9.252C41.2035 8.988 41.7555 8.856 42.3795 8.856C43.7595 8.856 44.7375 9.39 45.3135 10.458C45.6375 9.966 46.0695 9.576 46.6095 9.288C47.1615 9 47.7615 8.856 48.4095 8.856C49.5735 8.856 50.4675 9.204 51.0915 9.9C51.7155 10.596 52.0275 11.616 52.0275 12.96V18H49.7235V13.176C49.7235 12.408 49.5735 11.82 49.2735 11.412C48.9855 11.004 48.5355 10.8 47.9235 10.8C47.2995 10.8 46.7955 11.028 46.4115 11.484C46.0395 11.94 45.8535 12.576 45.8535 13.392V18H43.5495V13.176C43.5495 12.408 43.3995 11.82 43.0995 11.412C42.7995 11.004 42.3375 10.8 41.7135 10.8C41.1015 10.8 40.6035 11.028 40.2195 11.484C39.8475 11.94 39.6615 12.576 39.6615 13.392V18H37.3575ZM55.4569 7.686C55.0369 7.686 54.6889 7.56 54.4129 7.308C54.1489 7.056 54.0169 6.738 54.0169 6.354C54.0169 5.97 54.1489 5.658 54.4129 5.418C54.6889 5.166 55.0369 5.04 55.4569 5.04C55.8769 5.04 56.2189 5.166 56.4829 5.418C56.7589 5.658 56.8969 5.97 56.8969 6.354C56.8969 6.738 56.7589 7.056 56.4829 7.308C56.2189 7.56 55.8769 7.686 55.4569 7.686ZM54.3049 18V9.072H56.6089V18H54.3049ZM62.7038 18.216C61.9118 18.216 61.2158 18.09 60.6158 17.838C60.0158 17.574 59.5358 17.214 59.1758 16.758C58.8158 16.302 58.5998 15.774 58.5278 15.174H60.8498C60.9218 15.522 61.1138 15.822 61.4258 16.074C61.7498 16.314 62.1638 16.434 62.6678 16.434C63.1718 16.434 63.5378 16.332 63.7658 16.128C64.0058 15.924 64.1258 15.69 64.1258 15.426C64.1258 15.042 63.9578 14.784 63.6218 14.652C63.2858 14.508 62.8178 14.37 62.2178 14.238C61.8338 14.154 61.4438 14.052 61.0478 13.932C60.6518 13.812 60.2858 13.662 59.9498 13.482C59.6258 13.29 59.3618 13.05 59.1578 12.762C58.9538 12.462 58.8518 12.096 58.8518 11.664C58.8518 10.872 59.1638 10.206 59.7878 9.666C60.4238 9.126 61.3118 8.856 62.4518 8.856C63.5078 8.856 64.3478 9.102 64.9718 9.594C65.6078 10.086 65.9858 10.764 66.1058 11.628H63.9278C63.7958 10.968 63.2978 10.638 62.4338 10.638C62.0018 10.638 61.6658 10.722 61.4258 10.89C61.1978 11.058 61.0838 11.268 61.0838 11.52C61.0838 11.784 61.2578 11.994 61.6058 12.15C61.9538 12.306 62.4158 12.45 62.9918 12.582C63.6158 12.726 64.1858 12.888 64.7018 13.068C65.2298 13.236 65.6498 13.494 65.9618 13.842C66.2738 14.178 66.4298 14.664 66.4298 15.3C66.4418 15.852 66.2978 16.35 65.9978 16.794C65.6978 17.238 65.2658 17.586 64.7018 17.838C64.1378 18.09 63.4718 18.216 62.7038 18.216ZM69.7128 7.686C69.2928 7.686 68.9448 7.56 68.6688 7.308C68.4048 7.056 68.2728 6.738 68.2728 6.354C68.2728 5.97 68.4048 5.658 68.6688 5.418C68.9448 5.166 69.2928 5.04 69.7128 5.04C70.1328 5.04 70.4748 5.166 70.7388 5.418C71.0148 5.658 71.1528 5.97 71.1528 6.354C71.1528 6.738 71.0148 7.056 70.7388 7.308C70.4748 7.56 70.1328 7.686 69.7128 7.686ZM68.5608 18V9.072H70.8648V18H68.5608ZM77.5536 18.216C76.6896 18.216 75.9096 18.018 75.2136 17.622C74.5296 17.226 73.9836 16.68 73.5756 15.984C73.1796 15.276 72.9816 14.46 72.9816 13.536C72.9816 12.612 73.1856 11.802 73.5936 11.106C74.0016 10.398 74.5476 9.846 75.2316 9.45C75.9276 9.054 76.7076 8.856 77.5716 8.856C78.4236 8.856 79.1916 9.054 79.8756 9.45C80.5716 9.846 81.1176 10.398 81.5136 11.106C81.9216 11.802 82.1256 12.612 82.1256 13.536C82.1256 14.46 81.9216 15.276 81.5136 15.984C81.1176 16.68 80.5716 17.226 79.8756 17.622C79.1796 18.018 78.4056 18.216 77.5536 18.216ZM77.5536 16.218C78.1536 16.218 78.6756 15.996 79.1196 15.552C79.5636 15.096 79.7856 14.424 79.7856 13.536C79.7856 12.648 79.5636 11.982 79.1196 11.538C78.6756 11.082 78.1596 10.854 77.5716 10.854C76.9596 10.854 76.4316 11.082 75.9876 11.538C75.5556 11.982 75.3396 12.648 75.3396 13.536C75.3396 14.424 75.5556 15.096 75.9876 15.552C76.4316 15.996 76.9536 16.218 77.5536 16.218ZM84.1856 18V9.072H86.2196L86.3996 10.584C86.6756 10.056 87.0716 9.636 87.5876 9.324C88.1156 9.012 88.7336 8.856 89.4416 8.856C90.5456 8.856 91.4036 9.204 92.0156 9.9C92.6276 10.596 92.9336 11.616 92.9336 12.96V18H90.6296V13.176C90.6296 12.408 90.4736 11.82 90.1616 11.412C89.8496 11.004 89.3636 10.8 88.7036 10.8C88.0556 10.8 87.5216 11.028 87.1016 11.484C86.6936 11.94 86.4896 12.576 86.4896 13.392V18H84.1856ZM99.4748 18.216C98.5748 18.216 97.7768 18.024 97.0808 17.64C96.3848 17.256 95.8388 16.716 95.4428 16.02C95.0468 15.324 94.8488 14.52 94.8488 13.608C94.8488 12.684 95.0408 11.862 95.4248 11.142C95.8208 10.422 96.3608 9.864 97.0448 9.468C97.7408 9.06 98.5568 8.856 99.4928 8.856C100.369 8.856 101.143 9.048 101.815 9.432C102.487 9.816 103.009 10.344 103.381 11.016C103.765 11.676 103.957 12.414 103.957 13.23C103.957 13.362 103.951 13.5 103.939 13.644C103.939 13.788 103.933 13.938 103.921 14.094H97.1348C97.1828 14.79 97.4228 15.336 97.8548 15.732C98.2988 16.128 98.8328 16.326 99.4568 16.326C99.9248 16.326 100.315 16.224 100.627 16.02C100.951 15.804 101.191 15.528 101.347 15.192H103.687C103.519 15.756 103.237 16.272 102.841 16.74C102.457 17.196 101.977 17.556 101.401 17.82C100.837 18.084 100.195 18.216 99.4748 18.216ZM99.4928 10.728C98.9288 10.728 98.4308 10.89 97.9988 11.214C97.5668 11.526 97.2908 12.006 97.1708 12.654H101.617C101.581 12.066 101.365 11.598 100.969 11.25C100.573 10.902 100.081 10.728 99.4928 10.728ZM109.585 18.216C108.793 18.216 108.097 18.09 107.497 17.838C106.897 17.574 106.417 17.214 106.057 16.758C105.697 16.302 105.481 15.774 105.409 15.174H107.731C107.803 15.522 107.995 15.822 108.307 16.074C108.631 16.314 109.045 16.434 109.549 16.434C110.053 16.434 110.419 16.332 110.647 16.128C110.887 15.924 111.007 15.69 111.007 15.426C111.007 15.042 110.839 14.784 110.503 14.652C110.167 14.508 109.699 14.37 109.099 14.238C108.715 14.154 108.325 14.052 107.929 13.932C107.533 13.812 107.167 13.662 106.831 13.482C106.507 13.29 106.243 13.05 106.039 12.762C105.835 12.462 105.733 12.096 105.733 11.664C105.733 10.872 106.045 10.206 106.669 9.666C107.305 9.126 108.193 8.856 109.333 8.856C110.389 8.856 111.229 9.102 111.853 9.594C112.489 10.086 112.867 10.764 112.987 11.628H110.809C110.677 10.968 110.179 10.638 109.315 10.638C108.883 10.638 108.547 10.722 108.307 10.89C108.079 11.058 107.965 11.268 107.965 11.52C107.965 11.784 108.139 11.994 108.487 12.15C108.835 12.306 109.297 12.45 109.873 12.582C110.497 12.726 111.067 12.888 111.583 13.068C112.111 13.236 112.531 13.494 112.843 13.842C113.155 14.178 113.311 14.664 113.311 15.3C113.323 15.852 113.179 16.35 112.879 16.794C112.579 17.238 112.147 17.586 111.583 17.838C111.019 18.09 110.353 18.216 109.585 18.216Z" fill="#1A9AF7"/>
<path d="M0 43C0 38.5817 3.58172 35 8 35H101V74H0V43Z" fill="white"/>
<path d="M13.2784 60H17.7386C20.4432 60 21.6648 58.6534 21.6648 56.8693C21.6648 55.0682 20.4034 54.0511 19.25 53.9886V53.875C20.3182 53.6023 21.2102 52.875 21.2102 51.4205C21.2102 49.6989 20.017 48.3636 17.5398 48.3636H13.2784V60ZM15.0341 58.4943V54.767H17.6307C19.0398 54.767 19.9205 55.6761 19.9205 56.7841C19.9205 57.7614 19.2557 58.4943 17.5682 58.4943H15.0341ZM15.0341 53.3977V49.858H17.4318C18.8239 49.858 19.4886 50.5909 19.4886 51.5568C19.4886 52.6818 18.5682 53.3977 17.3864 53.3977H15.0341ZM23.2908 60H24.9897V51.2727H23.2908V60ZM24.1488 49.9261C24.734 49.9261 25.2226 49.4716 25.2226 48.9148C25.2226 48.358 24.734 47.8977 24.1488 47.8977C23.5578 47.8977 23.0749 48.358 23.0749 48.9148C23.0749 49.4716 23.5578 49.9261 24.1488 49.9261ZM31.029 51.2727H29.2393V49.1818H27.5404V51.2727H26.262V52.6364H27.5404V57.7898C27.5347 59.375 28.7449 60.142 30.0859 60.1136C30.6256 60.108 30.9893 60.0057 31.1881 59.9318L30.8813 58.5284C30.7677 58.5511 30.5574 58.6023 30.2847 58.6023C29.7336 58.6023 29.2393 58.4205 29.2393 57.4375V52.6364H31.029V51.2727ZM32.5883 60H34.2872V54.6705C34.2872 53.5284 35.1678 52.7045 36.3724 52.7045C36.7247 52.7045 37.1224 52.767 37.2588 52.8068V51.1818C37.0883 51.1591 36.7531 51.142 36.5372 51.142C35.5144 51.142 34.6394 51.7216 34.3213 52.6591H34.2303V51.2727H32.5883V60ZM40.8706 60.1932C42.3137 60.1932 43.1262 59.4602 43.4501 58.8068H43.5183V60H45.1774V54.2045C45.1774 51.6648 43.1774 51.1591 41.791 51.1591C40.2115 51.1591 38.7569 51.7955 38.1887 53.3864L39.7853 53.75C40.0353 53.1307 40.6717 52.5341 41.8137 52.5341C42.9103 52.5341 43.4728 53.108 43.4728 54.0966V54.1364C43.4728 54.7557 42.8365 54.7443 41.2683 54.9261C39.6149 55.1193 37.9217 55.5511 37.9217 57.5341C37.9217 59.25 39.2115 60.1932 40.8706 60.1932ZM41.2399 58.8295C40.2797 58.8295 39.5865 58.3977 39.5865 57.5568C39.5865 56.6477 40.3933 56.3239 41.3762 56.1932C41.9274 56.1193 43.2342 55.9716 43.4785 55.7273V56.8523C43.4785 57.8864 42.6547 58.8295 41.2399 58.8295ZM50.3872 60.1705C51.9781 60.1705 52.6031 59.1989 52.9099 58.642H53.052V60H54.7111V48.3636H53.0122V52.6875H52.9099C52.6031 52.1477 52.0236 51.1591 50.3986 51.1591C48.2906 51.1591 46.7395 52.8239 46.7395 55.6534C46.7395 58.4773 48.2679 60.1705 50.3872 60.1705ZM50.7622 58.7216C49.2452 58.7216 48.4554 57.3864 48.4554 55.6364C48.4554 53.9034 49.2281 52.6023 50.7622 52.6023C52.2452 52.6023 53.0406 53.8125 53.0406 55.6364C53.0406 57.4716 52.2281 58.7216 50.7622 58.7216ZM60.5772 60.1761C62.4806 60.1761 63.8272 59.2386 64.2135 57.8182L62.6056 57.5284C62.2988 58.3523 61.5601 58.7727 60.5942 58.7727C59.1397 58.7727 58.1624 57.8295 58.1169 56.1477H64.3215V55.5455C64.3215 52.392 62.4351 51.1591 60.4578 51.1591C58.026 51.1591 56.4238 53.0114 56.4238 55.6932C56.4238 58.4034 58.0033 60.1761 60.5772 60.1761ZM58.1226 54.875C58.1908 53.6364 59.0885 52.5625 60.4692 52.5625C61.7874 52.5625 62.651 53.5398 62.6567 54.875H58.1226Z" fill="#B5B0AC"/>
<rect width="101" height="39" transform="translate(0 75)" fill="white"/>
<path d="M13.2784 100H17.7386C20.4432 100 21.6648 98.6534 21.6648 96.8693C21.6648 95.0682 20.4034 94.0511 19.25 93.9886V93.875C20.3182 93.6023 21.2102 92.875 21.2102 91.4205C21.2102 89.6989 20.017 88.3636 17.5398 88.3636H13.2784V100ZM15.0341 98.4943V94.767H17.6307C19.0398 94.767 19.9205 95.6761 19.9205 96.7841C19.9205 97.7614 19.2557 98.4943 17.5682 98.4943H15.0341ZM15.0341 93.3977V89.858H17.4318C18.8239 89.858 19.4886 90.5909 19.4886 91.5568C19.4886 92.6818 18.5682 93.3977 17.3864 93.3977H15.0341ZM23.2908 100H24.9897V91.2727H23.2908V100ZM24.1488 89.9261C24.734 89.9261 25.2226 89.4716 25.2226 88.9148C25.2226 88.358 24.734 87.8977 24.1488 87.8977C23.5578 87.8977 23.0749 88.358 23.0749 88.9148C23.0749 89.4716 23.5578 89.9261 24.1488 89.9261ZM31.029 91.2727H29.2393V89.1818H27.5404V91.2727H26.262V92.6364H27.5404V97.7898C27.5347 99.375 28.7449 100.142 30.0859 100.114C30.6256 100.108 30.9893 100.006 31.1881 99.9318L30.8813 98.5284C30.7677 98.5511 30.5574 98.6023 30.2847 98.6023C29.7336 98.6023 29.2393 98.4205 29.2393 97.4375V92.6364H31.029V91.2727ZM32.5883 103.273H34.2872V98.642H34.3894C34.6963 99.1989 35.3213 100.17 36.9122 100.17C39.0258 100.17 40.5599 98.4773 40.5599 95.6534C40.5599 92.8239 39.0031 91.1591 36.8951 91.1591C35.2758 91.1591 34.6906 92.1477 34.3894 92.6875H34.2474V91.2727H32.5883V103.273ZM34.2531 95.6364C34.2531 93.8125 35.0485 92.6023 36.5315 92.6023C38.0713 92.6023 38.844 93.9034 38.844 95.6364C38.844 97.3864 38.0485 98.7216 36.5315 98.7216C35.0713 98.7216 34.2531 97.4716 34.2531 95.6364ZM42.1433 100H43.8422V94.6705C43.8422 93.5284 44.7228 92.7045 45.9274 92.7045C46.2797 92.7045 46.6774 92.767 46.8137 92.8068V91.1818C46.6433 91.1591 46.3081 91.142 46.0922 91.142C45.0694 91.142 44.1944 91.7216 43.8762 92.6591H43.7853V91.2727H42.1433V100ZM51.4128 100.176C53.3162 100.176 54.6628 99.2386 55.0491 97.8182L53.4412 97.5284C53.1344 98.3523 52.3957 98.7727 51.4298 98.7727C49.9753 98.7727 48.998 97.8295 48.9526 96.1477H55.1571V95.5455C55.1571 92.392 53.2707 91.1591 51.2935 91.1591C48.8616 91.1591 47.2594 93.0114 47.2594 95.6932C47.2594 98.4034 48.8389 100.176 51.4128 100.176ZM48.9582 94.875C49.0264 93.6364 49.9241 92.5625 51.3048 92.5625C52.623 92.5625 53.4866 93.5398 53.4923 94.875H48.9582ZM60.3982 100.176C62.4607 100.176 63.7959 98.9375 63.9834 97.2386H62.33C62.1141 98.1818 61.3811 98.7386 60.4095 98.7386C58.972 98.7386 58.0459 97.5398 58.0459 95.6364C58.0459 93.767 58.9891 92.5909 60.4095 92.5909C61.4891 92.5909 62.1482 93.2727 62.33 94.0909H63.9834C63.8016 92.3295 62.3641 91.1591 60.3811 91.1591C57.9209 91.1591 56.33 93.0114 56.33 95.6761C56.33 98.3068 57.8641 100.176 60.3982 100.176ZM69.1563 100.176C71.6165 100.176 73.2245 98.375 73.2245 95.6761C73.2245 92.9602 71.6165 91.1591 69.1563 91.1591C66.6961 91.1591 65.0881 92.9602 65.0881 95.6761C65.0881 98.375 66.6961 100.176 69.1563 100.176ZM69.162 98.75C67.554 98.75 66.804 97.3466 66.804 95.6705C66.804 94 67.554 92.5795 69.162 92.5795C70.7586 92.5795 71.5086 94 71.5086 95.6705C71.5086 97.3466 70.7586 98.75 69.162 98.75Z" fill="#B5B0AC"/>
<rect width="101" height="39" transform="translate(0 115)" fill="white"/>
<path d="M22.6705 128.364H20.9318V136.909H20.8239L14.9034 128.364H13.2784V140H15.0341V131.466H15.142L21.0568 140H22.6705V128.364ZM28.4513 140.176C30.9115 140.176 32.5195 138.375 32.5195 135.676C32.5195 132.96 30.9115 131.159 28.4513 131.159C25.9911 131.159 24.3831 132.96 24.3831 135.676C24.3831 138.375 25.9911 140.176 28.4513 140.176ZM28.457 138.75C26.849 138.75 26.099 137.347 26.099 135.67C26.099 134 26.849 132.58 28.457 132.58C30.0536 132.58 30.8036 134 30.8036 135.67C30.8036 137.347 30.0536 138.75 28.457 138.75ZM41.2492 131.273H39.4253L37.2208 137.989H37.1299L34.9197 131.273H33.0958L36.2663 140H38.0844L41.2492 131.273ZM44.7999 140.193C46.2431 140.193 47.0556 139.46 47.3795 138.807H47.4477V140H49.1068V134.205C49.1068 131.665 47.1068 131.159 45.7204 131.159C44.1409 131.159 42.6863 131.795 42.1181 133.386L43.7147 133.75C43.9647 133.131 44.6011 132.534 45.7431 132.534C46.8397 132.534 47.4022 133.108 47.4022 134.097V134.136C47.4022 134.756 46.7659 134.744 45.1977 134.926C43.5443 135.119 41.8511 135.551 41.8511 137.534C41.8511 139.25 43.1409 140.193 44.7999 140.193ZM45.1693 138.83C44.209 138.83 43.5159 138.398 43.5159 137.557C43.5159 136.648 44.3227 136.324 45.3056 136.193C45.8568 136.119 47.1636 135.972 47.4079 135.727V136.852C47.4079 137.886 46.584 138.83 45.1693 138.83ZM54.3166 140.17C55.9075 140.17 56.5325 139.199 56.8393 138.642H56.9814V140H58.6405V128.364H56.9416V132.688H56.8393C56.5325 132.148 55.953 131.159 54.328 131.159C52.22 131.159 50.6689 132.824 50.6689 135.653C50.6689 138.477 52.1973 140.17 54.3166 140.17ZM54.6916 138.722C53.1745 138.722 52.3848 137.386 52.3848 135.636C52.3848 133.903 53.1575 132.602 54.6916 132.602C56.1745 132.602 56.97 133.812 56.97 135.636C56.97 137.472 56.1575 138.722 54.6916 138.722ZM63.2849 140.193C64.7281 140.193 65.5406 139.46 65.8645 138.807H65.9327V140H67.5918V134.205C67.5918 131.665 65.5918 131.159 64.2054 131.159C62.6259 131.159 61.1713 131.795 60.6031 133.386L62.1997 133.75C62.4497 133.131 63.0861 132.534 64.2281 132.534C65.3247 132.534 65.8872 133.108 65.8872 134.097V134.136C65.8872 134.756 65.2509 134.744 63.6827 134.926C62.0293 135.119 60.3361 135.551 60.3361 137.534C60.3361 139.25 61.6259 140.193 63.2849 140.193ZM63.6543 138.83C62.694 138.83 62.0009 138.398 62.0009 137.557C62.0009 136.648 62.8077 136.324 63.7906 136.193C64.3418 136.119 65.6486 135.972 65.8929 135.727V136.852C65.8929 137.886 65.069 138.83 63.6543 138.83ZM70.8755 131.273H69.0118L71.6936 135.636L68.9777 140H70.8414L72.8016 136.739L74.7675 140H76.6255L73.8811 135.636L76.6027 131.273H74.7448L72.8016 134.67L70.8755 131.273Z" fill="#B5B0AC"/>
<path d="M0 155H101V194H8C3.58172 194 0 190.418 0 186V155Z" fill="white"/>
<path d="M22.9432 172.148C22.5455 169.659 20.5966 168.205 18.1364 168.205C15.125 168.205 12.9034 170.46 12.9034 174.182C12.9034 177.903 15.1136 180.159 18.1364 180.159C20.6932 180.159 22.5625 178.557 22.9432 176.256L21.1705 176.25C20.8693 177.739 19.6193 178.557 18.1477 178.557C16.1534 178.557 14.6477 177.028 14.6477 174.182C14.6477 171.358 16.1477 169.807 18.1534 169.807C19.6364 169.807 20.8807 170.642 21.1705 172.148H22.9432ZM28.2638 180.176C30.724 180.176 32.332 178.375 32.332 175.676C32.332 172.96 30.724 171.159 28.2638 171.159C25.8036 171.159 24.1956 172.96 24.1956 175.676C24.1956 178.375 25.8036 180.176 28.2638 180.176ZM28.2695 178.75C26.6615 178.75 25.9115 177.347 25.9115 175.67C25.9115 174 26.6615 172.58 28.2695 172.58C29.8661 172.58 30.6161 174 30.6161 175.67C30.6161 177.347 29.8661 178.75 28.2695 178.75ZM33.9083 180H35.6072V171.273H33.9083V180ZM34.7663 169.926C35.3515 169.926 35.8401 169.472 35.8401 168.915C35.8401 168.358 35.3515 167.898 34.7663 167.898C34.1753 167.898 33.6924 168.358 33.6924 168.915C33.6924 169.472 34.1753 169.926 34.7663 169.926ZM39.2715 174.818C39.2715 173.426 40.1238 172.631 41.3056 172.631C42.459 172.631 43.1579 173.386 43.1579 174.653V180H44.8568V174.449C44.8568 172.29 43.6693 171.159 41.8852 171.159C40.5727 171.159 39.7147 171.767 39.3113 172.693H39.2034V171.273H37.5727V180H39.2715V174.818ZM50.5765 180.176C52.4799 180.176 53.8265 179.239 54.2129 177.818L52.6049 177.528C52.2981 178.352 51.5595 178.773 50.5936 178.773C49.139 178.773 48.1618 177.83 48.1163 176.148H54.3209V175.545C54.3209 172.392 52.4345 171.159 50.4572 171.159C48.0254 171.159 46.4231 173.011 46.4231 175.693C46.4231 178.403 48.0027 180.176 50.5765 180.176ZM48.122 174.875C48.1902 173.636 49.0879 172.562 50.4686 172.562C51.7868 172.562 52.6504 173.54 52.6561 174.875H48.122ZM57.0236 171.273H55.1599L57.8418 175.636L55.1259 180H56.9895L58.9497 176.739L60.9156 180H62.7736L60.0293 175.636L62.7509 171.273H60.8929L58.9497 174.67L57.0236 171.273ZM68.249 171.273H66.4593V169.182H64.7604V171.273H63.482V172.636H64.7604V177.79C64.7547 179.375 65.9649 180.142 67.3059 180.114C67.8456 180.108 68.2093 180.006 68.4081 179.932L68.1013 178.528C67.9877 178.551 67.7774 178.602 67.5047 178.602C66.9536 178.602 66.4593 178.42 66.4593 177.438V172.636H68.249V171.273Z" fill="#B5B0AC"/>
<path d="M102 35H182C186.418 35 190 38.5817 190 43V74H102V35Z" fill="white"/>
<path d="M126.356 61.2727H127.171V60.1641C129.259 60.0199 130.433 58.7869 130.433 57.2358C130.433 55.3267 128.623 54.7102 127.569 54.4318L127.171 54.3224V50.7876C128.225 50.892 128.991 51.4588 129.1 52.3636H130.293C130.244 50.9119 128.971 49.8082 127.171 49.6889V48.5455H126.356V49.7038C124.651 49.8778 123.373 50.9616 123.373 52.5227C123.373 53.8949 124.367 54.7102 125.958 55.1676L126.356 55.282V59.0455C125.312 58.9361 124.457 58.3991 124.367 57.375H123.094C123.209 58.9411 124.402 60.0348 126.356 60.1641V61.2727ZM127.171 59.0455V55.5156L127.211 55.5256C128.285 55.8239 129.239 56.2017 129.239 57.2159C129.239 58.2152 128.374 58.9112 127.171 59.0455ZM126.356 54.1037C125.6 53.8899 124.566 53.4723 124.566 52.4631C124.566 51.603 125.262 50.9467 126.356 50.8026V54.1037ZM139.238 49.8182H138.005L135.459 51.5085V52.7614L137.945 51.1108H138.005V60H139.238V49.8182ZM141.886 60H148.309V58.9062H143.576V58.8267L145.863 56.3807C147.613 54.5064 148.13 53.6314 148.13 52.5028C148.13 50.9318 146.858 49.679 145.068 49.679C143.283 49.679 141.926 50.892 141.926 52.6818H143.099C143.099 51.5234 143.85 50.7528 145.028 50.7528C146.132 50.7528 146.977 51.429 146.977 52.5028C146.977 53.4425 146.425 54.1385 145.247 55.4261L141.886 59.1051V60ZM150.958 60.0795C151.45 60.0795 151.852 59.6768 151.852 59.1847C151.852 58.6925 151.45 58.2898 150.958 58.2898C150.465 58.2898 150.063 58.6925 150.063 59.1847C150.063 59.6768 150.465 60.0795 150.958 60.0795ZM156.804 49.6591C154.736 49.6392 153.403 51.1903 153.403 53.0795C153.403 55.0483 154.855 56.4602 156.605 56.4602C157.659 56.4602 158.554 55.9432 159.111 55.108H159.19C159.19 57.6136 158.216 59.0455 156.645 59.0455C155.571 59.0455 154.915 58.3693 154.696 57.4347H153.483C153.721 59.0455 154.934 60.1392 156.645 60.1392C158.932 60.1392 160.344 58.1108 160.344 54.4915C160.344 50.733 158.474 49.679 156.804 49.6591ZM156.804 50.7528C158.077 50.7528 159.011 51.8466 159.011 53.0597C159.011 54.2727 158.017 55.3665 156.764 55.3665C155.511 55.3665 154.596 54.3523 154.596 53.0795C154.596 51.7869 155.551 50.7528 156.804 50.7528ZM165.399 60.1392C167.458 60.1641 168.8 58.6129 168.8 56.7188C168.8 54.75 167.343 53.3381 165.598 53.3381C164.549 53.3381 163.649 53.8501 163.093 54.6903H163.013C163.018 52.1896 163.982 50.7528 165.558 50.7528C166.632 50.7528 167.279 51.429 167.507 52.3636H168.72C168.472 50.7628 167.269 49.6591 165.558 49.6591C163.267 49.6591 161.86 51.6875 161.86 55.3068C161.86 59.0703 163.729 60.1193 165.399 60.1392ZM165.399 59.0455C164.122 59.0455 163.187 57.9567 163.192 56.7386C163.197 55.5206 164.176 54.4318 165.439 54.4318C166.687 54.4318 167.607 55.456 167.607 56.7188C167.607 58.0114 166.647 59.0455 165.399 59.0455Z" fill="#757575"/>
<rect width="88" height="39" transform="translate(102 75)" fill="white"/>
<path d="M126.923 101.273H127.739V100.164C129.827 100.02 131 98.7869 131 97.2358C131 95.3267 129.19 94.7102 128.136 94.4318L127.739 94.3224V90.7876C128.793 90.892 129.558 91.4588 129.668 92.3636H130.861C130.811 90.9119 129.538 89.8082 127.739 89.6889V88.5455H126.923V89.7038C125.218 89.8778 123.94 90.9616 123.94 92.5227C123.94 93.8949 124.935 94.7102 126.525 95.1676L126.923 95.282V99.0455C125.879 98.9361 125.024 98.3991 124.935 97.375H123.662C123.776 98.9411 124.969 100.035 126.923 100.164V101.273ZM127.739 99.0455V95.5156L127.778 95.5256C128.852 95.8239 129.807 96.2017 129.807 97.2159C129.807 98.2152 128.942 98.9112 127.739 99.0455ZM126.923 94.1037C126.168 93.8899 125.133 93.4723 125.133 92.4631C125.133 91.603 125.829 90.9467 126.923 90.8026V94.1037ZM139.805 89.8182H138.572L136.027 91.5085V92.7614L138.513 91.1108H138.572V100H139.805V89.8182ZM145.894 100.139C147.867 100.139 149.334 98.9013 149.334 97.2358C149.334 95.9432 148.568 95.0036 147.286 94.7898V94.7102C148.315 94.397 148.956 93.5518 148.956 92.4034C148.956 90.9616 147.818 89.679 145.934 89.679C144.174 89.679 142.712 90.7628 142.652 92.3636H143.845C143.89 91.3494 144.855 90.7528 145.914 90.7528C147.037 90.7528 147.763 91.4339 147.763 92.4631C147.763 93.5369 146.923 94.233 145.715 94.233H144.899V95.3267H145.715C147.261 95.3267 148.121 96.1122 148.121 97.2358C148.121 98.3146 147.181 99.0455 145.874 99.0455C144.696 99.0455 143.761 98.4389 143.686 97.4545H142.434C142.508 99.0554 143.92 100.139 145.894 100.139ZM151.648 100.08C152.14 100.08 152.543 99.6768 152.543 99.1847C152.543 98.6925 152.14 98.2898 151.648 98.2898C151.156 98.2898 150.753 98.6925 150.753 99.1847C150.753 99.6768 151.156 100.08 151.648 100.08ZM157.314 100.139C159.561 100.139 160.854 98.2351 160.854 94.9091C160.854 91.608 159.541 89.679 157.314 89.679C155.087 89.679 153.774 91.608 153.774 94.9091C153.774 98.2351 155.067 100.139 157.314 100.139ZM157.314 99.0455C155.832 99.0455 154.967 97.5589 154.967 94.9091C154.967 92.2642 155.842 90.7528 157.314 90.7528C158.786 90.7528 159.661 92.2642 159.661 94.9091C159.661 97.5589 158.796 99.0455 157.314 99.0455ZM162.508 100H163.8L168.334 90.9716V89.8182H161.812V90.9119H167.062V90.9915L162.508 100Z" fill="#757575"/>
<rect width="88" height="39" transform="translate(102 115)" fill="white"/>
<path d="M128.078 141.273H128.894V140.164C130.982 140.02 132.155 138.787 132.155 137.236C132.155 135.327 130.346 134.71 129.292 134.432L128.894 134.322V130.788C129.948 130.892 130.713 131.459 130.823 132.364H132.016C131.966 130.912 130.694 129.808 128.894 129.689V128.545H128.078V129.704C126.373 129.878 125.096 130.962 125.096 132.523C125.096 133.895 126.09 134.71 127.681 135.168L128.078 135.282V139.045C127.034 138.936 126.179 138.399 126.09 137.375H124.817C124.931 138.941 126.125 140.035 128.078 140.164V141.273ZM128.894 139.045V135.516L128.934 135.526C130.007 135.824 130.962 136.202 130.962 137.216C130.962 138.215 130.097 138.911 128.894 139.045ZM128.078 134.104C127.323 133.89 126.289 133.472 126.289 132.463C126.289 131.603 126.985 130.947 128.078 130.803V134.104ZM140.96 129.818H139.727L137.182 131.509V132.761L139.668 131.111H139.727V140H140.96V129.818ZM147.049 140.139C149.023 140.139 150.489 138.901 150.489 137.236C150.489 135.943 149.724 135.004 148.441 134.79V134.71C149.47 134.397 150.112 133.552 150.112 132.403C150.112 130.962 148.973 129.679 147.089 129.679C145.329 129.679 143.867 130.763 143.808 132.364H145.001C145.045 131.349 146.01 130.753 147.069 130.753C148.192 130.753 148.918 131.434 148.918 132.463C148.918 133.537 148.078 134.233 146.87 134.233H146.055V135.327H146.87C148.416 135.327 149.276 136.112 149.276 137.236C149.276 138.315 148.337 139.045 147.029 139.045C145.851 139.045 144.916 138.439 144.842 137.455H143.589C143.663 139.055 145.075 140.139 147.049 140.139ZM152.803 140.08C153.295 140.08 153.698 139.677 153.698 139.185C153.698 138.692 153.295 138.29 152.803 138.29C152.311 138.29 151.908 138.692 151.908 139.185C151.908 139.677 152.311 140.08 152.803 140.08ZM157.866 129.818H156.634L154.088 131.509V132.761L156.574 131.111H156.634V140H157.866V129.818ZM163.697 140.139C165.635 140.139 167.057 138.707 167.057 136.759C167.057 134.785 165.685 133.338 163.816 133.338C163.13 133.338 162.464 133.582 162.046 133.915H161.986L162.344 130.912H166.6V129.818H161.31L160.694 134.83L161.847 134.969C162.27 134.665 162.991 134.447 163.617 134.452C164.915 134.462 165.864 135.446 165.864 136.778C165.864 138.086 164.949 139.045 163.697 139.045C162.653 139.045 161.822 138.374 161.728 137.455H160.535C160.609 139.006 161.947 140.139 163.697 140.139Z" fill="#757575"/>
<path d="M102 155H190V186C190 190.418 186.418 194 182 194H102V155Z" fill="white"/>
<path d="M126.342 181.273H127.157V180.164C129.246 180.02 130.419 178.787 130.419 177.236C130.419 175.327 128.609 174.71 127.555 174.432L127.157 174.322V170.788C128.211 170.892 128.977 171.459 129.086 172.364H130.28C130.23 170.912 128.957 169.808 127.157 169.689V168.545H126.342V169.704C124.637 169.878 123.359 170.962 123.359 172.523C123.359 173.895 124.353 174.71 125.944 175.168L126.342 175.282V179.045C125.298 178.936 124.443 178.399 124.353 177.375H123.081C123.195 178.941 124.388 180.035 126.342 180.164V181.273ZM127.157 179.045V175.516L127.197 175.526C128.271 175.824 129.226 176.202 129.226 177.216C129.226 178.215 128.361 178.911 127.157 179.045ZM126.342 174.104C125.586 173.89 124.552 173.472 124.552 172.463C124.552 171.603 125.248 170.947 126.342 170.803V174.104ZM139.224 169.818H137.991L135.446 171.509V172.761L137.931 171.111H137.991V180H139.224V169.818ZM141.634 177.912H146.426V180H147.6V177.912H148.992V176.818H147.6V169.818H146.108L141.634 176.898V177.912ZM146.426 176.818H142.966V176.739L146.347 171.389H146.426V176.818ZM150.971 180.08C151.463 180.08 151.866 179.677 151.866 179.185C151.866 178.692 151.463 178.29 150.971 178.29C150.479 178.29 150.076 178.692 150.076 179.185C150.076 179.677 150.479 180.08 150.971 180.08ZM156.817 169.659C154.749 169.639 153.417 171.19 153.417 173.08C153.417 175.048 154.869 176.46 156.619 176.46C157.673 176.46 158.567 175.943 159.124 175.108H159.204C159.204 177.614 158.229 179.045 156.658 179.045C155.585 179.045 154.928 178.369 154.71 177.435H153.496C153.735 179.045 154.948 180.139 156.658 180.139C158.945 180.139 160.357 178.111 160.357 174.491C160.357 170.733 158.488 169.679 156.817 169.659ZM156.817 170.753C158.09 170.753 159.025 171.847 159.025 173.06C159.025 174.273 158.031 175.366 156.778 175.366C155.525 175.366 154.61 174.352 154.61 173.08C154.61 171.787 155.565 170.753 156.817 170.753ZM165.413 180.139C167.471 180.164 168.814 178.613 168.814 176.719C168.814 174.75 167.357 173.338 165.612 173.338C164.563 173.338 163.663 173.85 163.106 174.69H163.027C163.032 172.19 163.996 170.753 165.572 170.753C166.646 170.753 167.292 171.429 167.521 172.364H168.734C168.485 170.763 167.282 169.659 165.572 169.659C163.28 169.659 161.873 171.688 161.873 175.307C161.873 179.07 163.743 180.119 165.413 180.139ZM165.413 179.045C164.135 179.045 163.201 177.957 163.206 176.739C163.211 175.521 164.19 174.432 165.453 174.432C166.701 174.432 167.62 175.456 167.62 176.719C167.62 178.011 166.661 179.045 165.413 179.045Z" fill="#757575"/>
</svg>
